first trial
nRows=28
nColumns=38

# SIMM Motion File Header:
name Sujet_05_velo_100.mvnx
datacolumns 38
datarows 28
otherdata 1
range 12.0330 12.4830
endheader
time pelvis_tilt  pelvis_list  pelvis_rotation  pelvis_tx  pelvis_ty  pelvis_tz  hip_flexion_r  hip_adduction_r  hip_rotation_r  knee_angle_r  ankle_angle_r  subtalar_angle_r  mtp_angle_r  hip_flexion_l  hip_adduction_l  hip_rotation_l  knee_angle_l  ankle_angle_l  subtalar_angle_l  mtp_angle_l  lumbar_extension  lumbar_bending  lumbar_rotation  arm_flex_r  arm_add_r  arm_rot_r  elbow_flex_r  pro_sup_r  wrist_flex_r  wrist_dev_r  arm_flex_l  arm_add_l  arm_rot_l  elbow_flex_l  pro_sup_l  wrist_flex_l  wrist_dev_l
12.0330	-5.8836	0.9725	-85.3865	0.0000	1.2500	-0.0000	50.9327	-11.7424	-27.9846	43.8193	-17.0948	7.3779	0.0000	60.4383	-12.7673	-21.2141	97.6596	-13.7904	19.0133	-0.0000	-22.4564	-0.3277	-1.6692	88.1703	-8.6852	15.9761	4.3835	74.6209	-55.2668	-39.9961	102.2008	-13.9363	27.0385	-3.6578	51.8517	-35.7760	-19.1202	
12.0500	-5.7384	1.5784	-84.7833	0.0000	1.2500	-0.0000	46.1318	-11.4200	-29.0755	38.6967	-19.2531	7.5773	-0.0000	64.2585	-12.8489	-20.6924	101.8881	-12.2047	18.6698	-0.0000	-22.4180	-0.7200	-1.9331	87.5091	-8.8671	15.4636	4.8782	74.3713	-55.2386	-39.9162	102.0970	-13.7395	27.6377	-3.2687	52.2949	-35.7590	-18.9653	
12.0660	-5.7445	2.2359	-84.2411	0.0000	1.2500	-0.0000	42.1077	-11.1922	-29.6334	34.8240	-21.5220	7.8117	0.0000	68.0657	-12.7428	-19.8411	104.6649	-10.0348	17.4688	-0.0000	-22.3632	-1.0667	-2.1185	87.1047	-9.1142	14.8773	5.4404	74.1713	-55.0740	-39.8105	102.2239	-13.6632	27.7037	-2.8143	53.1086	-35.7258	-18.8578	
12.0830	-5.8641	2.8835	-83.7730	0.0000	1.2500	-0.0000	38.6901	-11.0973	-29.8066	32.1319	-23.7417	8.0414	-0.0000	71.7883	-12.5376	-18.8404	106.1756	-7.5404	15.8510	0.0000	-22.3004	-1.3660	-2.2457	86.8690	-9.4091	14.2798	6.0500	73.9946	-54.8324	-39.6848	102.4710	-13.6495	27.5257	-2.3415	54.0283	-35.6886	-18.7851	
12.1000	-6.0671	3.4572	-83.5193	0.0000	1.2500	-0.0000	36.2952	-11.1260	-29.8972	31.1424	-25.1029	8.0955	-0.0000	74.9253	-12.3573	-17.7735	106.3287	-5.5980	14.6579	0.0000	-22.2554	-1.6177	-2.3217	86.8153	-9.6806	13.9725	6.5097	73.7059	-54.6599	-39.6044	102.7594	-13.6438	27.5003	-2.0505	54.5360	-35.6560	-18.7765	
12.1160	-6.3961	4.0388	-83.5667	0.0000	1.2500	-0.0000	35.1474	-11.3319	-30.1066	32.0989	-25.1183	7.7883	0.0000	77.4868	-12.2747	-16.3370	104.9773	-4.6571	14.2132	-0.0000	-22.2352	-1.8664	-2.3528	86.9874	-9.9337	14.1582	6.7302	73.1652	-54.6444	-39.6270	103.0893	-13.6123	27.8931	-2.0691	54.3124	-35.6215	-18.8752	
12.1330	-6.8160	4.5438	-83.8268	0.0000	1.2500	-0.0000	35.0294	-11.6724	-30.1981	34.7285	-24.2417	7.2122	-0.0000	79.4617	-12.2250	-14.7764	102.2961	-4.2689	14.0936	-0.0000	-22.2294	-2.0670	-2.3341	87.3449	-10.1739	14.6379	6.7988	72.5125	-54.6987	-39.6961	103.4603	-13.5950	28.4395	-2.2573	53.6811	-35.5908	-19.0371	
12.1490	-7.1797	4.6572	-84.1840	0.0000	1.2500	-0.0000	35.7052	-11.9669	-29.7973	38.7731	-23.0345	6.5661	-0.0000	80.3230	-12.1720	-13.9824	98.6439	-3.9761	14.0287	-0.0000	-22.2383	-2.0850	-2.2539	87.7771	-10.3281	15.1129	6.7854	72.0341	-54.7088	-39.7090	103.7941	-13.6457	28.7402	-2.3963	53.0965	-35.5908	-19.1603	
12.1660	-7.4456	4.1957	-84.6135	0.0000	1.2500	-0.0000	37.2159	-12.0983	-28.6817	44.5361	-21.4551	5.8422	-0.0000	79.8152	-12.0602	-14.4467	93.9296	-3.4646	13.9263	0.0000	-22.2721	-1.8424	-2.0947	88.3005	-10.3642	15.4718	6.7322	71.8257	-54.6027	-39.6069	104.0811	-13.8143	28.5553	-2.3418	52.7622	-35.6248	-19.1806	
12.1830	-7.6453	3.3417	-85.1469	0.0000	1.2500	-0.0000	39.5388	-12.1267	-27.1012	51.6891	-19.5961	4.9901	0.0000	78.2117	-11.9487	-15.6935	88.2034	-3.0585	13.9257	0.0000	-22.3261	-1.4186	-1.8706	88.8983	-10.3038	15.8259	6.5988	71.7918	-54.4517	-39.4476	104.3278	-14.0483	28.1227	-2.2362	52.4762	-35.6898	-19.1626	
12.2000	-7.7376	2.3322	-85.7534	0.0000	1.2500	-0.0000	42.3368	-12.1460	-25.3913	59.0493	-18.1501	4.2249	-0.0000	75.7768	-11.9891	-17.1858	82.0192	-3.2706	14.1847	0.0000	-22.3787	-0.9140	-1.6172	89.4092	-10.1514	16.2083	6.3335	71.9331	-54.3581	-39.3044	104.4844	-14.2433	27.7603	-2.2853	52.0887	-35.8035	-19.1980	
12.2160	-7.6785	1.1658	-86.4295	0.0000	1.2500	-0.0000	45.5996	-12.1381	-23.4945	66.5530	-17.4204	3.6274	-0.0000	72.4563	-12.2457	-18.8338	75.3435	-4.5189	14.9180	-0.0000	-22.4222	-0.3171	-1.3343	89.7713	-9.8972	16.6609	5.8229	72.2700	-54.3572	-39.2303	104.5414	-14.3277	27.6576	-2.6376	51.4349	-35.9939	-19.3460	
12.2330	-7.5028	-0.1513	-87.1713	0.0000	1.2500	-0.0000	49.3489	-12.0620	-21.5173	74.2534	-17.0331	3.2091	-0.0000	68.2979	-12.6068	-20.8179	68.1623	-6.3716	15.9217	-0.0000	-22.4713	0.3623	-1.0251	90.0399	-9.5471	17.1354	5.1802	72.7828	-54.4147	-39.1731	104.5115	-14.3715	27.6264	-3.1581	50.6748	-36.2335	-19.5467	
12.2490	-7.2976	-1.3715	-87.9482	0.0000	1.2500	-0.0000	53.2743	-12.0556	-19.9840	81.2056	-16.6289	3.0900	-0.0000	63.7007	-12.9693	-22.9964	61.1257	-8.0949	16.7381	-0.0000	-22.5314	0.9924	-0.7311	90.2313	-9.1371	17.5317	4.6913	73.4105	-54.5295	-39.0494	104.3804	-14.4830	27.4188	-3.6152	50.1510	-36.4567	-19.7132	
12.2660	-7.0540	-2.4482	-88.8206	0.0000	1.2500	-0.0000	57.3654	-12.2675	-19.1716	87.2645	-16.2203	3.5129	-0.0000	58.4253	-13.2987	-25.5852	54.1158	-9.3898	17.1765	0.0000	-22.6124	1.5411	-0.4795	90.3236	-8.5824	17.8145	4.4643	74.1862	-54.7335	-38.7815	104.1151	-14.7160	26.8830	-3.9452	50.0639	-36.6626	-19.8082	
12.2830	-6.7822	-3.4262	-89.7277	0.0000	1.2500	-0.0000	61.6075	-12.6375	-18.7732	92.5976	-15.7707	4.2323	-0.0000	52.7120	-13.4772	-28.4130	47.3072	-10.5754	17.4378	-0.0000	-22.7021	2.0399	-0.2429	90.3346	-7.9753	18.0168	4.3808	75.0715	-54.9940	-38.4463	103.7440	-15.0153	26.1697	-4.1968	50.2184	-36.8518	-19.8699	
12.2990	-6.6105	-4.2027	89.5348	0.0000	1.2500	-0.0000	65.6856	-13.0106	-18.3757	96.7562	-14.8975	4.6191	-0.0000	47.6725	-13.4437	-30.6391	41.8540	-11.8760	17.6767	-0.0000	-22.7628	2.4531	0.0225	90.3537	-7.6202	18.1523	4.3880	75.8992	-55.2133	-38.1940	103.3439	-15.3240	25.4851	-4.2982	50.3689	-36.9612	-19.9261	
12.3160	-6.6073	-4.6970	89.0194	0.0000	1.2500	-0.0000	69.6812	-13.3311	-17.8590	99.6672	-13.1811	4.3279	0.0000	43.5283	-13.2863	-31.7484	38.0275	-13.6029	17.9860	-0.0000	-22.7651	2.7490	0.3527	90.4013	-7.6870	18.1936	4.5276	76.6735	-55.3594	-38.0761	102.8724	-15.6653	24.7498	-4.1308	50.5825	-36.9408	-19.9769	
12.3330	-6.7179	-4.9957	88.6676	0.0000	1.2500	-0.0000	73.5233	-13.6305	-17.2881	101.4128	-11.0645	3.7448	0.0000	40.0265	-13.1445	-32.1546	35.5846	-15.4495	18.2999	-0.0000	-22.7301	2.9602	0.7124	90.4723	-8.0075	18.1780	4.7573	77.3915	-55.4650	-38.0424	102.3676	-16.0124	24.0426	-3.8189	50.7902	-36.8400	-20.0207	
12.3500	-6.8910	-5.2492	88.5134	0.0000	1.2500	-0.0000	76.6821	-13.8492	-16.5242	101.7934	-9.5058	3.2680	0.0000	37.5553	-13.1677	-32.3791	34.8823	-16.7055	18.5072	0.0000	-22.6930	3.1470	1.0387	90.6221	-8.3762	18.2202	4.9144	77.8827	-55.5308	-38.0905	102.0404	-16.2352	23.8087	-3.6468	50.5466	-36.7453	-20.0842	
12.3660	-7.1532	-5.5945	88.5825	0.0000	1.2500	-0.0000	79.1758	-13.9638	-15.1581	100.6479	-9.0770	2.8984	0.0000	36.3253	-13.5135	-32.6959	36.1676	-16.9743	18.5063	0.0000	-22.6689	3.3761	1.3467	90.9347	-8.7513	18.4413	4.9330	78.0373	-55.5682	-38.2497	102.0164	-16.2716	24.4693	-3.7425	49.3599	-36.6866	-20.2068	
12.3830	-7.4811	-5.8927	88.8486	0.0000	1.2500	-0.0000	80.9785	-13.9929	-13.5848	98.1058	-9.1878	2.5238	0.0000	36.1270	-14.0558	-32.8215	39.1654	-16.6494	18.3550	0.0000	-22.6390	3.5797	1.6217	91.3238	-9.1766	18.7192	4.8915	77.9692	-55.5649	-38.4906	102.1782	-16.2012	25.6054	-3.9661	47.7236	-36.6346	-20.3494	
12.4000	-7.7444	-5.8794	89.2710	0.0000	1.2500	-0.0000	81.4952	-13.9990	-12.8877	94.4440	-9.0837	2.3639	-0.0000	36.7284	-14.4685	-32.4492	43.4607	-16.1995	18.1610	0.0000	-22.5890	3.6180	1.7544	91.5855	-9.5726	18.8025	4.8483	77.8450	-55.4862	-38.7233	102.3799	-16.0946	26.4017	-4.1998	46.6720	-36.5883	-20.4228	
12.4160	-7.9014	-5.4131	89.8873	0.0000	1.2500	-0.0000	80.3593	-13.9868	-13.6467	89.5695	-8.1633	2.5213	-0.0000	38.1877	-14.5803	-31.3780	49.3127	-15.6980	17.9379	0.0000	-22.5134	3.4170	1.6848	91.6239	-9.9509	18.5013	4.8623	77.7392	-55.2531	-38.9156	102.5687	-15.9409	26.4413	-4.4395	46.7164	-36.5579	-20.3718	
12.4330	-7.9822	-4.6353	-89.3372	0.0000	1.2500	-0.0000	77.9598	-13.9332	-15.3186	83.6177	-7.0499	2.9229	-0.0000	40.4607	-14.4968	-29.8398	56.4922	-15.0758	17.6524	0.0000	-22.4256	3.0505	1.4732	91.5280	-10.2961	18.0034	4.8738	77.5777	-54.9455	-39.0974	102.7990	-15.7385	26.1408	-4.6941	47.3433	-36.5330	-20.2521	
12.4500	-7.9634	-3.7085	-88.5514	0.0000	1.2500	-0.0000	74.8373	-13.8871	-17.3059	77.2309	-6.8634	3.5747	-0.0000	43.1547	-14.3204	-28.1763	63.8404	-14.5808	17.3713	0.0000	-22.3407	2.6018	1.1904	91.3767	-10.4880	17.6267	4.7622	77.3028	-54.7681	-39.2766	103.0870	-15.5554	25.9340	-4.8737	48.0525	-36.4800	-20.1402	
12.4660	-7.8125	-2.5826	-87.8123	0.0000	1.2500	-0.0000	71.0039	-13.8594	-19.6304	70.3114	-8.2656	4.6832	-0.0000	46.2206	-14.0344	-26.3566	71.2474	-14.4309	17.1558	0.0000	-22.2597	2.0536	0.8360	91.2189	-10.3834	17.5723	4.3590	76.8271	-54.8472	-39.4795	103.4928	-15.4274	25.9286	-4.9602	48.7251	-36.3588	-20.0750	
12.4830	-7.5564	-1.3129	-87.0698	0.0000	1.2500	-0.0000	66.4586	-13.7580	-22.3147	62.8782	-10.6178	6.0686	-0.0000	49.7045	-13.6134	-24.4717	78.7518	-14.4069	16.9517	-0.0000	-22.1863	1.4208	0.4144	91.0150	-10.1256	17.6422	3.8126	76.2251	-55.0547	-39.6790	103.9543	-15.3137	26.0160	-4.9766	49.4807	-36.2101	-20.0185	
